<svg width="30" height="36" viewBox="0 0 30 36" fill="none" xmlns="http://www.w3.org/2000/svg">
<path d="M4.71482 23.4523C3.57762 20.8936 2.67127 18.228 1.31052 15.854C0.86585 16.3764 1.15744 16.7822 1.29352 17.1953C2.5352 20.8936 3.7866 24.5895 5.04286 28.283L5.04292 28.2832C5.72813 30.3023 6.41335 32.3215 7.13744 34.3286C7.38286 35.0065 7.65987 35.8327 8.51034 35.8521C9.27819 35.8692 9.59164 35.1013 9.87351 34.4987C10.3352 33.5097 10.7531 32.4989 11.1346 31.4759C11.99 29.1845 12.6315 26.808 13.8586 24.6721C14.2182 24.0477 14.5851 23.3017 15.4696 23.3989C16.3687 23.4985 16.529 24.3344 16.7307 25.0123C17.326 27.0146 17.6322 29.0873 18.0088 31.1333C18.2421 32.4017 18.5167 33.5632 19.0002 35.043L18.5167 28.1906C18.3806 26.5699 18.1546 24.971 17.4864 23.4839C16.3857 21.0346 14.432 20.845 12.8404 23.0247C12.352 23.6929 11.9754 24.4462 11.5696 25.1727C10.9621 26.2613 10.447 27.4131 9.7593 28.4482C8.82379 29.8551 7.92473 29.826 6.99893 28.4093C5.99538 26.8761 5.45351 25.1144 4.71482 23.4523Z" fill="white"/>
<path d="M12.3496 4.64483C16.5704 5.71885 20.762 4.09082 24.9706 4.56465C27.9132 4.89512 29.1306 6.19512 29.1816 9.12558C29.2229 11.5263 28.5401 13.7691 27.5827 15.9172C25.9279 19.6228 24.176 23.2871 22.4532 26.9635C22.3535 27.1774 22.2758 27.469 21.7582 27.486C22.0279 25.8166 22.5261 24.2518 23.0485 22.6942C24.3048 18.9473 25.7724 15.2635 26.1466 11.2712C26.4406 8.14148 25.2038 6.61063 22.0863 6.50858C20.4728 6.45512 18.8545 6.52802 17.2386 6.50372C15.4307 6.47699 13.7808 5.95455 12.3496 4.64483Z" fill="white"/>
<path d="M1.72341 13.045C0.894809 9.9056 0.275185 6.8998 0.950699 3.78223C1.13051 2.95363 1.4707 2.19794 1.98098 1.52971C3.44378 -0.389914 5.86397 -0.511414 7.49201 1.3426C8.30845 2.27326 8.95967 3.35943 9.63275 4.40672C10.8258 6.2656 12.1015 8.01513 14.3589 8.72952C12.2886 8.77812 10.7627 7.8256 9.60116 6.21457C8.96453 5.33009 8.43238 4.36298 7.7593 3.50765C5.93687 1.19195 3.42677 1.59046 2.35276 4.35812C1.66023 6.13924 1.60191 8.00541 1.69425 9.89345C1.74285 10.8921 2.04173 11.8933 1.72341 13.045Z" fill="white"/>
</svg>
