<svg width="16" height="16" viewBox="0 0 16 16" fill="none" xmlns="http://www.w3.org/2000/svg">
<path d="M7.99979 2.98657C7.49611 2.98657 7.00374 3.13593 6.58494 3.41576C6.16614 3.69559 5.83973 4.09333 5.64698 4.55867C5.45423 5.02401 5.4038 5.53606 5.50206 6.03007C5.60032 6.52407 5.84287 6.97785 6.19903 7.334C6.55519 7.69016 7.00896 7.93271 7.50296 8.03097C7.99697 8.12924 8.50902 8.0788 8.97436 7.88605C9.4397 7.6933 9.83744 7.36689 10.1173 6.94809C10.3971 6.52929 10.5465 6.03692 10.5465 5.53324C10.5465 4.85782 10.2781 4.21007 9.80056 3.73247C9.32296 3.25488 8.67521 2.98657 7.99979 2.98657ZM7.99979 7.19102C7.67192 7.19102 7.3514 7.09379 7.07878 6.91163C6.80616 6.72947 6.59368 6.47056 6.46821 6.16764C6.34273 5.86472 6.3099 5.5314 6.37387 5.20982C6.43783 4.88825 6.59572 4.59286 6.82757 4.36101C7.05941 4.12917 7.3548 3.97128 7.67638 3.90731C7.99795 3.84335 8.33128 3.87618 8.6342 4.00165C8.93712 4.12713 9.19602 4.33961 9.37818 4.61223C9.56034 4.88485 9.65757 5.20536 9.65757 5.53324C9.65639 5.97214 9.48122 6.39266 9.17045 6.70259C8.85968 7.01253 8.43869 7.18657 7.99979 7.18657V7.19102Z" fill="white"/>
<path d="M8.0002 0.888916C6.61585 0.890072 5.2882 1.439 4.30723 2.4158C3.32626 3.39261 2.77169 4.71791 2.76465 6.10225C2.76465 8.1778 3.92909 9.91558 4.78243 11.1822L4.93798 11.4134C5.78699 12.6439 6.69779 13.8306 7.66687 14.9689L8.00465 15.3645L8.34243 14.9689C9.31138 13.8305 10.2222 12.6438 11.0713 11.4134L11.2269 11.1778C12.0758 9.91114 13.2402 8.1778 13.2402 6.10225C13.2332 4.71714 12.678 3.39117 11.696 2.41424C10.7141 1.43731 9.38533 0.888898 8.0002 0.888916ZM10.4846 10.6667L10.3246 10.9022C9.5602 12.0489 8.54687 13.3334 8.0002 13.9689C7.47576 13.3334 6.4402 12.0489 5.67576 10.9022L5.5202 10.6667C4.73354 9.49336 3.65354 7.88892 3.65354 6.08447C3.65354 5.51366 3.76597 4.94844 3.98441 4.42107C4.20285 3.89371 4.52302 3.41454 4.92665 3.01091C5.33027 2.60729 5.80944 2.28712 6.33681 2.06868C6.86417 1.85023 7.42939 1.7378 8.0002 1.7378C8.57102 1.7378 9.13624 1.85023 9.6636 2.06868C10.191 2.28712 10.6701 2.60729 11.0738 3.01091C11.4774 3.41454 11.7976 3.89371 12.016 4.42107C12.2344 4.94844 12.3469 5.51366 12.3469 6.08447C12.3469 7.90669 11.2713 9.51114 10.4846 10.6667Z" fill="white"/>
</svg>
